<?xml version="1.0" encoding="iso-8859-1"?>
<!-- Generator: Adobe Illustrator 19.0.0, SVG Export Plug-In . SVG Version: 6.00 Build 0)  -->
<svg version="1.1" id="Layer_1" xmlns="http://www.w3.org/2000/svg" xmlns:xlink="http://www.w3.org/1999/xlink" x="0px" y="0px"
	 viewBox="0 0 512 512" style="enable-background:new 0 0 512 512;" xml:space="preserve">
<path style="fill:#FE9901;" d="M401.202,319.466H378.86c14.471-11.163,23.802-28.664,23.802-48.353l0,0
	c0-33.715-27.332-61.046-61.046-61.046h-15.731c-38.766-12.216-66.878-48.449-66.878-91.25c0-17.65,4.785-34.181,13.122-48.374
	c-52.081,0.867-94.035,43.35-94.035,95.638c0,15.86,3.864,30.816,10.696,43.985h-18.405c-33.715,0-61.046,27.332-61.046,61.046l0,0
	c0,19.69,9.331,37.191,23.802,48.353H110.8c-33.715,0-61.046,27.332-61.046,61.046l0,0c0,33.715,27.332,61.046,61.046,61.046
	h290.403c33.715,0,61.046-27.332,61.046-61.046l0,0C462.248,346.798,434.916,319.466,401.202,319.466z"/>
<path style="fill:#EA8500;" d="M401.202,319.466H378.86c14.471-11.163,23.802-28.664,23.802-48.353l0,0
	c0-33.715-27.332-61.046-61.046-61.046h-15.731c-38.766-12.216-66.878-48.449-66.878-91.25c0-17.65,4.785-34.181,13.122-48.374
	c-9.097,0.151-17.882,1.576-26.191,4.098c-6.929,13.241-10.863,28.297-10.863,44.277c0,42.801,28.112,79.034,66.878,91.25h15.731
	c33.715,0,61.046,27.332,61.046,61.046l0,0c0,19.69-9.331,37.191-23.802,48.353h22.341c33.715,0,61.046,27.332,61.046,61.046l0,0
	c0,33.715-27.331,61.046-61.046,61.046h23.931c33.715,0,61.046-27.332,61.046-61.046l0,0
	C462.248,346.798,434.916,319.466,401.202,319.466z"/>
<path d="M504.067,433.626h-58.904c15.273-12.663,25.019-31.77,25.019-53.114c0-38.035-30.944-68.979-68.979-68.979h-3.659
	c8.43-11.604,13.052-25.63,13.052-40.42c0-0.795-0.014-1.589-0.04-2.379c-0.149-4.379-3.862-7.813-8.197-7.659
	c-4.38,0.148-7.808,3.818-7.66,8.197c0.021,0.611,0.032,1.224,0.032,1.84c0,16.582-7.55,31.917-20.715,42.072
	c-2.688,2.073-3.759,5.628-2.663,8.841c1.095,3.213,4.114,5.373,7.509,5.373h22.341c29.287,0,53.113,23.827,53.113,53.113
	c0,29.287-23.826,53.113-53.113,53.113H110.799c-29.287,0-53.114-23.827-53.114-53.113c0-29.287,23.827-53.113,53.114-53.113h22.341
	h51.594c4.382,0,7.933-3.552,7.933-7.933s-3.551-7.933-7.933-7.933h-48.769c-11.909-10.127-18.695-24.71-18.695-40.42
	c0-29.287,23.827-53.113,53.114-53.113h18.405c2.77,0,5.34-1.445,6.779-3.812s1.538-5.314,0.262-7.773
	c-6.505-12.541-9.805-26.111-9.805-40.333c0-42.971,31.568-79.23,72.72-86.423c-5.046,12.369-7.673,25.677-7.673,39.158
	c0,22.477,7.079,43.859,20.472,61.834c6.171,8.281,13.421,15.479,21.526,21.483h-22.264c-4.382,0-7.933,3.552-7.933,7.933
	c0,4.381,3.551,7.933,7.933,7.933h55.076h15.731c19.842,0,37.887,10.931,47.095,28.528c2.032,3.882,6.826,5.383,10.707,3.351
	c3.882-2.031,5.382-6.825,3.351-10.706c-11.955-22.846-35.387-37.039-61.153-37.039H327.13
	c-36.054-11.891-60.191-45.221-60.191-83.317c0-15.62,4.16-30.958,12.029-44.357c1.453-2.473,1.458-5.538,0.012-8.016
	c-1.445-2.477-4.086-3.967-6.984-3.934c-27.302,0.455-52.896,11.43-72.069,30.903c-19.196,19.497-29.768,45.304-29.768,72.667
	c0,12.306,2.215,24.567,6.465,36.052h-6.241c-38.036,0-68.98,30.944-68.98,68.979c0,14.79,4.622,28.816,13.052,40.42h-3.658
	c-38.036,0-68.98,30.944-68.98,68.979c0,21.343,9.746,40.451,25.019,53.113H7.933c-4.382,0-7.933,3.552-7.933,7.933
	c0,4.381,3.551,7.933,7.933,7.933h496.134c4.382,0,7.933-3.552,7.933-7.933C512,437.176,508.448,433.626,504.067,433.626z"/>
<path d="M210.716,311.534c-4.382,0-7.933,3.552-7.933,7.933s3.551,7.933,7.933,7.933h16.197c4.382,0,7.933-3.552,7.933-7.933
	s-3.551-7.933-7.933-7.933H210.716z"/>
<g>
</g>
<g>
</g>
<g>
</g>
<g>
</g>
<g>
</g>
<g>
</g>
<g>
</g>
<g>
</g>
<g>
</g>
<g>
</g>
<g>
</g>
<g>
</g>
<g>
</g>
<g>
</g>
<g>
</g>
</svg>
